<svg height='300px' width='300px'  fill="#000000" xmlns="http://www.w3.org/2000/svg" xmlns:xlink="http://www.w3.org/1999/xlink" version="1.1" x="0px" y="0px" viewBox="0 0 48 48" enable-background="new 0 0 48 48" xml:space="preserve"><g><path d="M24,0C10.8,0,0,10.8,0,24s10.8,24,24,24s24-10.8,24-24S37.2,0,24,0z M24,2c12.1,0,22,9.9,22,22c0,0.8,0,1.6-0.1,2.3   c-0.5-0.3-1.1-0.4-1.7-0.4c0,0,0,0,0,0c-1.5,0-2.7,0.9-3.2,2.3l-2.2,6c-0.2,0.5-0.6,0.8-1.1,0.9c-0.5,0.1-1-0.1-1.4-0.5l-1.7-1.9   c-0.7-0.9-1.8-1.3-2.9-1.2c-1.1,0.1-2.1,0.7-2.7,1.6l-0.7,1.2c-0.3,0.4-0.7,0.7-1.2,0.7c-0.5,0-1-0.2-1.3-0.6   c-0.7-1-1.9-1.6-3.2-1.5c-1.3,0.1-2.3,0.9-2.8,2l-0.6,1.4c-0.2,0.5-0.6,0.8-1.1,0.8c-0.5,0.1-1-0.1-1.3-0.5l-4.6-5.4   c-0.8-0.9-1.9-1.3-3.1-1.2c-1.2,0.2-2.2,0.9-2.7,2l-0.1,0.3c-0.2,0.4-0.6,0.7-1.1,0.8c-0.4,0.1-0.9,0-1.2-0.3C2.7,30.1,2,27.1,2,24   C2,11.9,11.9,2,24,2z M24,46c-8.1,0-15.1-4.4-19-10.9c0.1,0,0.3,0,0.4,0c1.1-0.2,2.1-0.9,2.5-2l0.1-0.3c0.2-0.5,0.6-0.8,1.1-0.8   c0.5-0.1,1,0.1,1.3,0.5l4.6,5.4c0.7,0.8,1.6,1.2,2.6,1.2c0.2,0,0.3,0,0.5,0c1.2-0.2,2.2-0.9,2.7-2l0.6-1.4c0.2-0.5,0.7-0.8,1.2-0.8   c0.5-0.1,1,0.2,1.4,0.6c0.7,1,1.8,1.5,3,1.5c1.2,0,2.3-0.7,2.9-1.7l0.7-1.2c0.2-0.4,0.7-0.7,1.1-0.7c0.5,0,0.9,0.1,1.2,0.5l1.7,1.9   c0.8,0.9,2,1.4,3.3,1.2c1.2-0.2,2.2-1,2.6-2.2l2.2-6c0.3-0.7,0.9-0.9,1.4-0.9c0,0,0,0,0,0c0.5,0,1,0.2,1.3,0.8   C43.3,38.6,34.5,46,24,46z"></path><path d="M24,31c3.9,0,7-3.1,7-7s-3.1-7-7-7c-3.9,0-7,3.1-7,7S20.1,31,24,31z M24,19c2.8,0,5,2.2,5,5s-2.2,5-5,5c-2.8,0-5-2.2-5-5   S21.2,19,24,19z"></path></g></svg>