<svg height='300px' width='300px'  fill="#000000" xmlns="http://www.w3.org/2000/svg" xmlns:xlink="http://www.w3.org/1999/xlink" version="1.1" x="0px" y="0px" viewBox="0 0 48 48" enable-background="new 0 0 48 48" xml:space="preserve"><g><path d="M31.1,14.4c-1.6,0-3.1,0.8-4.3,1.5c0.4-2,1.7-5.5,5.1-6.5c0.5-0.2,0.8-0.7,0.7-1.2c-0.2-0.5-0.7-0.8-1.2-0.7   c-2.4,0.7-3.9,2.2-4.9,3.9C23.8,4.6,17.2,0,9.9,0c-1.7,0-3.4,0.2-5,0.7C4.3,0.9,4,1.4,4.2,2c1.9,6.6,7.6,11.5,14.2,12.6   c-6.3,0.8-11.2,6.2-11.2,12.7c0,6.9,5.5,20.8,12.8,20.8c1.4,0,2.8-0.5,4.1-1.5c0.8-0.6,1.9-0.6,2.7,0c1.4,1,2.8,1.5,4.1,1.5   c7.3,0,12.8-13.9,12.8-20.8C43.8,20.2,38.1,14.4,31.1,14.4z M24.7,16.1c-0.8-0.5-1.7-1-2.8-1.4c1.1,0,2.1-0.2,3.2-0.4   C24.9,15,24.8,15.6,24.7,16.1z M6.4,2.4C7.6,2.1,8.7,2,9.9,2c6.6,0,12.6,4.2,14.8,10.4c-1.1,0.3-2.3,0.4-3.4,0.4h0   C14.6,12.8,8.7,8.5,6.4,2.4z M31.1,46c-1,0-2-0.4-3-1.1c-0.7-0.5-1.6-0.8-2.5-0.8s-1.8,0.3-2.5,0.8c-1,0.7-2,1.1-3,1.1   C14.4,46,9.3,33.2,9.3,27.2c0-6,4.8-10.8,10.8-10.8c1.2,0,2.6,0.8,3.6,1.4c0.5,0.3,1.1,0.5,1.8,0.5c0,0,0,0,0.1,0c0,0,0,0,0.1,0   c0,0,0,0,0.1,0c0.6,0,1.3-0.2,1.8-0.5c1.1-0.6,2.4-1.4,3.6-1.4c6,0,10.8,4.8,10.8,10.8C41.8,33.2,36.7,46,31.1,46z"></path><path d="M31.1,18.4c-0.6,0-1,0.4-1,1c0,0.6,0.4,1,1,1c3.7,0,6.8,3,6.8,6.8c0,0.6,0.4,1,1,1c0.6,0,1-0.4,1-1   C39.8,22.4,35.9,18.4,31.1,18.4z"></path></g></svg>