<svg height='300px' width='300px'  fill="#000000" xmlns="http://www.w3.org/2000/svg" xmlns:xlink="http://www.w3.org/1999/xlink" version="1.1" x="0px" y="0px" viewBox="0 0 48 48" enable-background="new 0 0 48 48" xml:space="preserve"><g><path d="M48,35.5C43.7,17.9,30.1,4.3,12.5,0c-0.5-0.1-1.1,0.2-1.2,0.7l-1.2,4.8l0,0v0L0,46.8c-0.1,0.3,0,0.7,0.3,0.9   C0.5,47.9,0.7,48,1,48c0.1,0,0.2,0,0.2,0l46-11.3C47.8,36.6,48.1,36,48,35.5z M11.8,7C26.1,10.9,37.1,21.9,41,36.2L2.4,45.6L11.8,7   z M42.9,35.7c-4-15-15.6-26.6-30.6-30.6L13,2.2C29.1,6.5,41.5,18.9,45.8,35L42.9,35.7z"></path><path d="M12.6,34.4c-1.8,0-3.3,1.5-3.3,3.3s1.5,3.3,3.3,3.3c1.8,0,3.3-1.5,3.3-3.3S14.4,34.4,12.6,34.4z M12.6,39.1   c-0.7,0-1.3-0.6-1.3-1.3c0-0.7,0.6-1.3,1.3-1.3c0.7,0,1.3,0.6,1.3,1.3C13.9,38.5,13.3,39.1,12.6,39.1z"></path><path d="M25.2,26.5c-1.8,0-3.3,1.5-3.3,3.3c0,1.8,1.5,3.3,3.3,3.3c1.8,0,3.3-1.5,3.3-3.3C28.5,28,27,26.5,25.2,26.5z M25.2,31.2   c-0.7,0-1.3-0.6-1.3-1.3c0-0.7,0.6-1.3,1.3-1.3c0.7,0,1.3,0.6,1.3,1.3C26.5,30.6,25.9,31.2,25.2,31.2z"></path><path d="M16.6,12.1c-1.8,0-3.3,1.5-3.3,3.3c0,1.8,1.5,3.3,3.3,3.3c1.8,0,3.3-1.5,3.3-3.3C19.9,13.6,18.4,12.1,16.6,12.1z    M16.6,16.8c-0.7,0-1.3-0.6-1.3-1.3c0-0.7,0.6-1.3,1.3-1.3c0.7,0,1.3,0.6,1.3,1.3C17.9,16.2,17.3,16.8,16.6,16.8z"></path><path d="M35.9,33.1l-2.4-2.4c-0.4-0.4-1-0.4-1.4,0c-0.4,0.4-0.4,1,0,1.4l2.4,2.4c0.2,0.2,0.5,0.3,0.7,0.3c0.3,0,0.5-0.1,0.7-0.3   C36.3,34.1,36.3,33.5,35.9,33.1z"></path><path d="M13.1,29.4c0.2,0.2,0.5,0.3,0.7,0.3c0.3,0,0.5-0.1,0.7-0.3c0.4-0.4,0.4-1,0-1.4l-2.4-2.4c-0.4-0.4-1-0.4-1.4,0   c-0.4,0.4-0.4,1,0,1.4L13.1,29.4z"></path><path d="M25.7,22.9c0.2,0.2,0.5,0.3,0.7,0.3c0.3,0,0.5-0.1,0.7-0.3c0.4-0.4,0.4-1,0-1.4l-2.4-2.4c-0.4-0.4-1-0.4-1.4,0   c-0.4,0.4-0.4,1,0,1.4L25.7,22.9z"></path></g></svg>